<svg xmlns="http://www.w3.org/2000/svg" width="443" height="143" fill="none"><path fill="#000" fill-rule="evenodd" d="M48.31 71.5c0 12.807 10.383 23.19 23.19 23.19 12.807 0 23.19-10.383 23.19-23.19H143c0 5.054-.524 9.985-1.521 14.742C134.684 118.658 105.935 143 71.5 143S8.316 118.658 1.522 86.242A71.802 71.802 0 0 1 0 71.5h48.31ZM16.677 86.242c6.49 24.199 28.577 42.016 54.824 42.016 26.247 0 48.333-17.817 54.824-42.016H106.46c-5.753 13.626-19.24 23.189-34.96 23.189-15.72 0-29.207-9.563-34.96-23.189H16.676Z" clip-rule="evenodd"/><path fill="#FE5D26" fill-rule="evenodd" d="M9.736 71.5c0-34.1 27.771-61.772 62.067-61.772 16.769 0 31.973 6.612 43.144 17.365l6.755-7.006C108.786 7.654 91.186 0 71.802 0 32.165 0 0 31.995 0 71.5h9.736Z" clip-rule="evenodd"/><path fill="#F9D32D" fill-rule="evenodd" d="M29.459 71.5c0-23.987 19.374-43.475 43.324-43.475 11.676 0 22.26 4.628 30.053 12.16l6.697-7.055c-9.527-9.209-22.487-14.875-36.75-14.875-29.251 0-53.006 23.816-53.006 53.245h9.682Z" clip-rule="evenodd"/><path fill="#F18C26" fill-rule="evenodd" d="M47.88 71.5c0-13.047 10.581-23.624 23.634-23.624A23.54 23.54 0 0 1 87.61 54.2l6.709-7.207a33.39 33.39 0 0 0-22.805-8.961c-18.492 0-33.483 14.984-33.483 33.468h9.848Z" clip-rule="evenodd"/><path fill="#FE5D26" d="M176.536 70.852c8.282 0 15.334 5.904 15.334 16.974V113h-12.3V89.63c0-5.084-3.198-7.462-7.134-7.462-4.51 0-7.626 2.624-7.626 8.446V113h-12.3V55.6h12.3v20.254c2.214-3.034 6.314-5.002 11.726-5.002ZM230.083 72h12.3v41h-12.3v-3.854c-2.706 3.116-6.724 5.002-12.218 5.002-10.742 0-19.598-9.43-19.598-21.648s8.856-21.648 19.598-21.648c5.494 0 9.512 1.886 12.218 5.002V72Zm-9.758 30.504c5.658 0 9.758-3.854 9.758-10.004 0-6.15-4.1-10.004-9.758-10.004-5.658 0-9.758 3.854-9.758 10.004 0 6.15 4.1 10.004 9.758 10.004Zm43.381-23.206c1.64-5.494 7.134-8.118 12.3-8.118v13.94c-5.084-.82-12.3 1.23-12.3 9.348V113h-12.3V72h12.3v7.298Zm42.568-8.446c10.742 0 19.598 9.43 19.598 21.648s-8.856 21.648-19.598 21.648c-5.494 0-9.512-1.886-12.218-5.002V113h-12.3V55.6h12.3v20.254c2.706-3.116 6.724-5.002 12.218-5.002Zm-2.46 31.652c5.658 0 9.758-3.854 9.758-10.004 0-6.15-4.1-10.004-9.758-10.004-5.658 0-9.758 3.854-9.758 10.004 0 6.15 4.1 10.004 9.758 10.004Zm40.02-5.084c1.558 4.264 5.33 5.74 9.84 5.74 3.362 0 6.232-1.312 7.872-3.116l9.84 5.658c-4.018 5.576-10.086 8.446-17.876 8.446-14.022 0-22.714-9.43-22.714-21.648s8.856-21.648 21.812-21.648c11.972 0 20.828 9.266 20.828 21.648 0 1.722-.164 3.362-.492 4.92h-29.11Zm-.246-9.184h17.63c-1.312-4.756-5.002-6.478-8.692-6.478-4.674 0-7.79 2.296-8.938 6.478Zm46.867-4.264c0 4.674 20.172 1.558 20.172 16.728 0 9.43-8.2 13.448-17.056 13.448-8.2 0-14.432-3.116-17.63-9.758l10.66-6.068c1.066 3.116 3.362 4.838 6.97 4.838 2.952 0 4.428-.902 4.428-2.542 0-4.51-20.172-2.132-20.172-16.318 0-8.938 7.544-13.448 16.072-13.448 6.642 0 12.546 2.952 15.99 8.774l-10.496 5.658c-1.148-2.132-2.788-3.608-5.494-3.608-2.132 0-3.444.82-3.444 2.296Zm49.138-.164h-8.446v14.514c0 3.526 3.034 3.854 8.446 3.526V113c-16.072 1.64-20.746-3.198-20.746-14.678V83.808h-6.56V72h6.56v-7.79l12.3-3.69V72h8.446v11.808Z"/><path fill="#000" d="m108.368 47.003 6.114 1.765 6.72-4.88-9.644.276a.532.532 0 0 0-.266.085l-3.052 1.754a.548.548 0 0 0-.275.543.543.543 0 0 0 .403.457Z"/><path fill="#000" d="m138.432 41.538-6.699-1.446a4.016 4.016 0 0 0-3.264.712L108.234 55.51l-4.86-.213a1.331 1.331 0 0 0-1.29.863 1.334 1.334 0 0 0 .408 1.498l4.732 3.753a.58.58 0 0 0 .563.096c1.351-.521 6.38-3.19 12.324-6.454l1.191 12.239a.587.587 0 0 0 .36.485.583.583 0 0 0 .597-.092l2.658-2.212a.806.806 0 0 0 .277-.478l2.52-14.132A1738.16 1738.16 0 0 0 138.89 44.6a1.653 1.653 0 0 0 .842-1.691 1.645 1.645 0 0 0-1.3-1.371Z"/></svg>